<?xml version="1.0" encoding="utf-8"?>
<!-- Generator: Adobe Illustrator 26.5.0, SVG Export Plug-In . SVG Version: 6.00 Build 0)  -->
<svg version="1.1" id="Camada_1" xmlns="http://www.w3.org/2000/svg" xmlns:xlink="http://www.w3.org/1999/xlink" x="0px" y="0px"
	 viewBox="0 0 1065.9 930.8" style="enable-background:new 0 0 1065.9 930.8;" xml:space="preserve">
<style type="text/css">
	.st0{fill:#E6E6E6;}
	.st1{fill:#FFFFFF;}
	.st2{fill:#FF8C00;}
</style>
<g>
	<g>
		<polygon class="st0" points="574.2,624.1 633.4,501 547.8,322.7 255.5,930.8 426.9,930.8 517.7,741.8 749.2,741.8 692.6,624.1 		
			"/>
		<g>
			<g>
				<polygon class="st1" points="0,930.8 171.4,930.8 505.7,235.1 420,56.8 				"/>
				<polygon class="st1" points="618.6,0.1 618.7,0 618.6,0 447.3,0 447.3,0.1 447.2,0.1 447.2,0.1 447.2,0.2 532.9,178.5 
					532.9,178.4 575,266 575,266 660.7,444.3 660.7,444.3 747.1,624.1 747.1,624.1 803.6,741.8 803.7,741.8 894.5,930.8 
					1065.9,930.8 				"/>
			</g>
			<g>
				<polygon class="st2" points="0,930.8 171.4,930.8 505.7,235.1 420,56.8 				"/>
				<polygon class="st2" points="618.6,0.1 618.7,0 618.6,0 447.3,0 447.3,0.1 447.2,0.1 447.2,0.1 447.2,0.2 532.9,178.5 
					532.9,178.4 575,266 575,266 660.7,444.3 660.7,444.3 747.1,624.1 747.1,624.1 803.6,741.8 803.7,741.8 894.5,930.8 
					1065.9,930.8 				"/>
			</g>
		</g>
	</g>
</g>
</svg>
