<?xml version="1.0" encoding="utf-8"?>
<!-- Generator: Adobe Illustrator 26.0.3, SVG Export Plug-In . SVG Version: 6.00 Build 0)  -->
<svg version="1.1" id="Camada_1" xmlns="http://www.w3.org/2000/svg" xmlns:xlink="http://www.w3.org/1999/xlink" x="0px" y="0px"
	 viewBox="0 0 1000 633.3" style="enable-background:new 0 0 1000 633.3;" xml:space="preserve">
<style type="text/css">
	.st0{fill:#FFFFFF;}
</style>
<path class="st0" d="M403.6,283.1c0,0,94.6-7,94.6-118S420.8,0,322.7,0H0v620.2h322.7c0,0,197,6.2,197-183
	C519.7,437.2,528.3,283.2,403.6,283.1L403.6,283.1z M299.5,110.2h23.2c0,0,43.9,0,43.9,64.5s-25.8,73.9-55.1,73.9H142.2V110.2H299.5
	z M313.6,510H142.2V344.2h180.5c0,0,65.4-0.8,65.4,85.2C388.1,501.9,339.3,509.4,313.6,510z M782.5,157.8
	c-238.5,0-238.3,238.3-238.3,238.3s-16.4,237.1,238.3,237.1c0,0,212.2,12.1,212.2-164.9H885.5c0,0,3.6,66.7-99.4,66.7
	c0,0-109.2,7.3-109.2-107.9h321.4C998.3,427,1033.5,157.8,782.5,157.8z M675.8,344.2c0,0,13.3-95.6,109.1-95.6s94.6,95.6,94.6,95.6
	L675.8,344.2z M904.9,112.9H649V36.5h255.9L904.9,112.9L904.9,112.9z"/>
</svg>
